<mxfile host="app.diagrams.net" modified="2022-06-17T02:05:07.537Z" agent="5.0 (Macintosh; Intel Mac OS X 10_15_7) AppleWebKit/537.36 (KHTML, like Gecko) Chrome/102.0.0.0 Safari/537.36" etag="-SIpBbAWQlCeSc1-Lwm2" version="20.0.1" type="github">
  <diagram id="h6bkxf4g4Pt922kW_9da" name="Page-1">
    <mxGraphModel dx="1242" dy="809" grid="1" gridSize="10" guides="1" tooltips="1" connect="1" arrows="1" fold="1" page="1" pageScale="1" pageWidth="827" pageHeight="1169" math="0" shadow="0">
      <root>
        <mxCell id="0" />
        <mxCell id="1" parent="0" />
        <mxCell id="Zilkw_QOrypw2byolMZy-1" value="&lt;br&gt;&lt;br&gt;&lt;br&gt;&lt;br&gt;&lt;br&gt;&lt;br&gt;&lt;br&gt;&lt;br&gt;&lt;br&gt;&lt;br&gt;&lt;br&gt;&lt;br&gt;&lt;br&gt;&lt;br&gt;&lt;br&gt;&lt;br&gt;&lt;br&gt;&lt;br&gt;&lt;br&gt;&lt;br&gt;&lt;br&gt;&lt;br&gt;&lt;br&gt;HostApp" style="rounded=1;whiteSpace=wrap;html=1;fillColor=#fff2cc;strokeColor=#d6b656;" vertex="1" parent="1">
          <mxGeometry x="70" y="150" width="180" height="390" as="geometry" />
        </mxCell>
        <mxCell id="Zilkw_QOrypw2byolMZy-8" style="edgeStyle=orthogonalEdgeStyle;rounded=0;orthogonalLoop=1;jettySize=auto;html=1;exitX=0.25;exitY=1;exitDx=0;exitDy=0;entryX=0.25;entryY=0;entryDx=0;entryDy=0;" edge="1" parent="1" source="Zilkw_QOrypw2byolMZy-2" target="Zilkw_QOrypw2byolMZy-3">
          <mxGeometry relative="1" as="geometry" />
        </mxCell>
        <mxCell id="Zilkw_QOrypw2byolMZy-15" style="edgeStyle=orthogonalEdgeStyle;rounded=0;orthogonalLoop=1;jettySize=auto;html=1;exitX=1;exitY=0.25;exitDx=0;exitDy=0;entryX=0;entryY=0.25;entryDx=0;entryDy=0;strokeColor=default;" edge="1" parent="1" source="Zilkw_QOrypw2byolMZy-2" target="Zilkw_QOrypw2byolMZy-13">
          <mxGeometry relative="1" as="geometry" />
        </mxCell>
        <mxCell id="Zilkw_QOrypw2byolMZy-2" value="MiniApp" style="rounded=1;whiteSpace=wrap;html=1;fillColor=#0050ef;strokeColor=#001DBC;fontColor=#ffffff;" vertex="1" parent="1">
          <mxGeometry x="100" y="190" width="120" height="60" as="geometry" />
        </mxCell>
        <mxCell id="Zilkw_QOrypw2byolMZy-6" style="edgeStyle=orthogonalEdgeStyle;rounded=0;orthogonalLoop=1;jettySize=auto;html=1;exitX=0.25;exitY=1;exitDx=0;exitDy=0;entryX=0.25;entryY=0;entryDx=0;entryDy=0;dashed=1;strokeColor=#8F8F8F;" edge="1" parent="1" source="Zilkw_QOrypw2byolMZy-3" target="Zilkw_QOrypw2byolMZy-5">
          <mxGeometry relative="1" as="geometry" />
        </mxCell>
        <mxCell id="Zilkw_QOrypw2byolMZy-9" style="edgeStyle=orthogonalEdgeStyle;rounded=0;orthogonalLoop=1;jettySize=auto;html=1;exitX=0.75;exitY=0;exitDx=0;exitDy=0;entryX=0.75;entryY=1;entryDx=0;entryDy=0;" edge="1" parent="1" source="Zilkw_QOrypw2byolMZy-3" target="Zilkw_QOrypw2byolMZy-2">
          <mxGeometry relative="1" as="geometry" />
        </mxCell>
        <mxCell id="Zilkw_QOrypw2byolMZy-11" style="edgeStyle=orthogonalEdgeStyle;rounded=0;orthogonalLoop=1;jettySize=auto;html=1;exitX=1;exitY=0.25;exitDx=0;exitDy=0;entryX=0;entryY=0.25;entryDx=0;entryDy=0;dashed=1;strokeColor=#8F8F8F;" edge="1" parent="1" source="Zilkw_QOrypw2byolMZy-3" target="Zilkw_QOrypw2byolMZy-10">
          <mxGeometry relative="1" as="geometry" />
        </mxCell>
        <mxCell id="Zilkw_QOrypw2byolMZy-3" value="MiniSDK" style="rounded=1;whiteSpace=wrap;html=1;fillColor=#60a917;strokeColor=#2D7600;fontColor=#ffffff;" vertex="1" parent="1">
          <mxGeometry x="100" y="330" width="120" height="60" as="geometry" />
        </mxCell>
        <mxCell id="Zilkw_QOrypw2byolMZy-7" style="edgeStyle=orthogonalEdgeStyle;rounded=0;orthogonalLoop=1;jettySize=auto;html=1;exitX=0.75;exitY=0;exitDx=0;exitDy=0;entryX=0.75;entryY=1;entryDx=0;entryDy=0;dashed=1;strokeColor=#8F8F8F;" edge="1" parent="1" source="Zilkw_QOrypw2byolMZy-5" target="Zilkw_QOrypw2byolMZy-3">
          <mxGeometry relative="1" as="geometry" />
        </mxCell>
        <mxCell id="Zilkw_QOrypw2byolMZy-5" value="Native Code (Android/iOS/Flutter)" style="rounded=1;whiteSpace=wrap;html=1;fillColor=#fff2cc;strokeColor=#d6b656;" vertex="1" parent="1">
          <mxGeometry x="100" y="440" width="120" height="60" as="geometry" />
        </mxCell>
        <mxCell id="Zilkw_QOrypw2byolMZy-12" style="edgeStyle=orthogonalEdgeStyle;rounded=0;orthogonalLoop=1;jettySize=auto;html=1;exitX=0;exitY=0.75;exitDx=0;exitDy=0;entryX=1;entryY=0.75;entryDx=0;entryDy=0;dashed=1;strokeColor=#8F8F8F;" edge="1" parent="1" source="Zilkw_QOrypw2byolMZy-10" target="Zilkw_QOrypw2byolMZy-3">
          <mxGeometry relative="1" as="geometry" />
        </mxCell>
        <mxCell id="Zilkw_QOrypw2byolMZy-18" style="edgeStyle=orthogonalEdgeStyle;rounded=0;orthogonalLoop=1;jettySize=auto;html=1;exitX=0.75;exitY=0;exitDx=0;exitDy=0;entryX=0.75;entryY=1;entryDx=0;entryDy=0;strokeColor=default;" edge="1" parent="1" source="Zilkw_QOrypw2byolMZy-10" target="Zilkw_QOrypw2byolMZy-13">
          <mxGeometry relative="1" as="geometry" />
        </mxCell>
        <mxCell id="Zilkw_QOrypw2byolMZy-24" style="edgeStyle=orthogonalEdgeStyle;rounded=0;orthogonalLoop=1;jettySize=auto;html=1;exitX=0.5;exitY=1;exitDx=0;exitDy=0;strokeColor=#8F8F8F;dashed=1;" edge="1" parent="1" source="Zilkw_QOrypw2byolMZy-10" target="Zilkw_QOrypw2byolMZy-23">
          <mxGeometry relative="1" as="geometry" />
        </mxCell>
        <mxCell id="Zilkw_QOrypw2byolMZy-10" value="Mini基盤API" style="rounded=1;whiteSpace=wrap;html=1;fillColor=#60a917;strokeColor=#2D7600;fontColor=#ffffff;" vertex="1" parent="1">
          <mxGeometry x="380" y="330" width="120" height="60" as="geometry" />
        </mxCell>
        <mxCell id="Zilkw_QOrypw2byolMZy-16" style="edgeStyle=orthogonalEdgeStyle;rounded=0;orthogonalLoop=1;jettySize=auto;html=1;exitX=0;exitY=0.75;exitDx=0;exitDy=0;entryX=1;entryY=0.75;entryDx=0;entryDy=0;strokeColor=default;" edge="1" parent="1" source="Zilkw_QOrypw2byolMZy-13" target="Zilkw_QOrypw2byolMZy-2">
          <mxGeometry relative="1" as="geometry" />
        </mxCell>
        <mxCell id="Zilkw_QOrypw2byolMZy-17" style="edgeStyle=orthogonalEdgeStyle;rounded=0;orthogonalLoop=1;jettySize=auto;html=1;exitX=0.25;exitY=1;exitDx=0;exitDy=0;entryX=0.25;entryY=0;entryDx=0;entryDy=0;strokeColor=default;" edge="1" parent="1" source="Zilkw_QOrypw2byolMZy-13" target="Zilkw_QOrypw2byolMZy-10">
          <mxGeometry relative="1" as="geometry" />
        </mxCell>
        <mxCell id="Zilkw_QOrypw2byolMZy-19" style="edgeStyle=orthogonalEdgeStyle;rounded=0;orthogonalLoop=1;jettySize=auto;html=1;exitX=1;exitY=0.25;exitDx=0;exitDy=0;entryX=0;entryY=0.25;entryDx=0;entryDy=0;strokeColor=default;" edge="1" parent="1" source="Zilkw_QOrypw2byolMZy-13" target="Zilkw_QOrypw2byolMZy-14">
          <mxGeometry relative="1" as="geometry" />
        </mxCell>
        <mxCell id="Zilkw_QOrypw2byolMZy-13" value="MiniApp API" style="rounded=1;whiteSpace=wrap;html=1;fillColor=#0050ef;strokeColor=#001DBC;fontColor=#ffffff;" vertex="1" parent="1">
          <mxGeometry x="380" y="190" width="120" height="60" as="geometry" />
        </mxCell>
        <mxCell id="Zilkw_QOrypw2byolMZy-20" style="edgeStyle=orthogonalEdgeStyle;rounded=0;orthogonalLoop=1;jettySize=auto;html=1;exitX=0;exitY=0.75;exitDx=0;exitDy=0;entryX=1;entryY=0.75;entryDx=0;entryDy=0;strokeColor=default;" edge="1" parent="1" source="Zilkw_QOrypw2byolMZy-14" target="Zilkw_QOrypw2byolMZy-13">
          <mxGeometry relative="1" as="geometry" />
        </mxCell>
        <mxCell id="Zilkw_QOrypw2byolMZy-14" value="MiniApp 管理Site" style="rounded=1;whiteSpace=wrap;html=1;fillColor=#0050ef;strokeColor=#001DBC;fontColor=#ffffff;" vertex="1" parent="1">
          <mxGeometry x="620" y="190" width="120" height="60" as="geometry" />
        </mxCell>
        <mxCell id="Zilkw_QOrypw2byolMZy-26" style="edgeStyle=orthogonalEdgeStyle;rounded=0;orthogonalLoop=1;jettySize=auto;html=1;exitX=0.5;exitY=1;exitDx=0;exitDy=0;entryX=0.5;entryY=1;entryDx=0;entryDy=0;strokeColor=#8F8F8F;dashed=1;" edge="1" parent="1" source="Zilkw_QOrypw2byolMZy-23" target="Zilkw_QOrypw2byolMZy-1">
          <mxGeometry relative="1" as="geometry">
            <Array as="points">
              <mxPoint x="440" y="560" />
              <mxPoint x="160" y="560" />
            </Array>
          </mxGeometry>
        </mxCell>
        <mxCell id="Zilkw_QOrypw2byolMZy-23" value="Google FCM" style="rounded=1;whiteSpace=wrap;html=1;fillColor=#fff2cc;strokeColor=#d6b656;" vertex="1" parent="1">
          <mxGeometry x="380" y="450" width="120" height="60" as="geometry" />
        </mxCell>
      </root>
    </mxGraphModel>
  </diagram>
</mxfile>
